<svg width="20" height="20" viewBox="0 0 20 20" fill="none" xmlns="http://www.w3.org/2000/svg">
  <g clip-path="url(#clip0_34_6362)">
    <!-- <path d="M12.0664 6.76953C12.2104 7.11556 12.5356 7.35176 12.9092 7.38184L18.2725
    7.8125L14.1865 11.3125C13.9018 11.5565 13.7773 11.939 13.8643 12.3037L15.1123 17.5371L10.5215
    14.7324C10.2015 14.537 9.79853 14.537 9.47852 14.7324L4.8877 17.5371L6.13574 12.3037C6.22274
    11.939 6.09819 11.5565 5.81348 11.3125L1.72754 7.8125L7.09082 7.38184C7.4644 7.35176 7.78959
    7.11556 7.93359 6.76953L10 1.80176L12.0664 6.76953Z" fill="#E5E7EB" stroke="#C7D2FE"/> -->
    <g clip-path="url(#clip1_34_6362)">
      <path
        d="M12.0664 6.76953C12.2104 7.11556 12.5356 7.35176 12.9092 7.38184L18.2725 7.8125L14.1865 11.3125C13.9018 11.5565 13.7773 11.939 13.8643 12.3037L15.1123 17.5371L10.5215 14.7324C10.2015 14.537 9.79853 14.537 9.47852 14.7324L4.8877 17.5371L6.13574 12.3037C6.22274 11.939 6.09819 11.5565 5.81348 11.3125L1.72754 7.8125L7.09082 7.38184C7.4644 7.35176 7.78959 7.11556 7.93359 6.76953L10 1.80176L12.0664 6.76953Z"
        fill="#FACC15" stroke="#C7D2FE" />
    </g>
  </g>
  <defs>
    <clipPath id="clip0_34_6362">
      <rect width="20" height="20" fill="white" />
    </clipPath>
    <clipPath id="clip1_34_6362">
      <rect width="20" height="20" fill="white" />
    </clipPath>
  </defs>
</svg>